<svg width="160" height="48" fill="none" xmlns="http://www.w3.org/2000/svg"><g clip-path="url('#clip0_224_2745')" id="download-on-the-app-store-apple-logo-svgrepo-com"><g id="Group"><path id="Vector" d="M32.935 23.735c-.037-4.058 3.328-6.033 3.482-6.125-1.906-2.774-4.86-3.153-5.898-3.183-2.48-.26-4.887 1.482-6.15 1.482-1.29 0-3.236-1.457-5.333-1.414-2.699.042-5.224 1.602-6.609 4.025-2.858 4.94-.726 12.2 2.012 16.193 1.37 1.957 2.97 4.139 5.065 4.062 2.05-.083 2.815-1.303 5.288-1.303 2.45 0 3.17 1.303 5.306 1.254 2.2-.034 3.584-1.964 4.906-3.938 1.583-2.24 2.219-4.449 2.244-4.562-.05-.018-4.27-1.627-4.313-6.49ZM28.899 11.8c1.102-1.376 1.856-3.249 1.647-5.15-1.596.071-3.59 1.103-4.74 2.449-1.016 1.186-1.924 3.13-1.69 4.959 1.792.133 3.633-.903 4.783-2.258Z" fill="#1F294C"/><g id="Group_2"><path id="Vector_2" d="M62.62 38.494h-2.864l-1.57-4.922h-5.453l-1.494 4.922H48.45l5.404-16.758h3.337l5.429 16.758Zm-4.906-6.987-1.42-4.376c-.15-.448-.432-1.5-.846-3.157h-.05c-.167.712-.433 1.765-.797 3.157l-1.395 4.376h4.508Zm18.776.797c0 2.055-.558 3.68-1.677 4.872-1.001 1.061-2.246 1.592-3.73 1.592-1.604 0-2.756-.57-3.456-1.714v6.34h-2.69V30.382c0-1.29-.033-2.614-.099-3.972h2.365l.15 1.916h.05c.897-1.444 2.258-2.165 4.084-2.165 1.428 0 2.62.563 3.573 1.69.953 1.13 1.43 2.613 1.43 4.453Zm-2.739.098c0-1.176-.265-2.146-.797-2.91-.581-.795-1.362-1.193-2.34-1.193-.664 0-1.267.222-1.806.659-.54.44-.893 1.016-1.058 1.729a3.5 3.5 0 0 0-.125.817v2.016c0 .878.27 1.62.81 2.227.54.604 1.241.908 2.104.908 1.013 0 1.8-.392 2.365-1.17.565-.779.847-1.806.847-3.083Zm16.66-.098c0 2.055-.56 3.68-1.678 4.872-1.002 1.061-2.246 1.592-3.732 1.592-1.603 0-2.756-.57-3.456-1.714v6.34h-2.688V30.382c0-1.29-.034-2.614-.1-3.972h2.365l.15 1.916h.05c.896-1.444 2.257-2.165 4.084-2.165 1.426 0 2.618.563 3.574 1.69.951 1.13 1.43 2.613 1.43 4.453Zm-2.741.098c0-1.176-.266-2.146-.798-2.91-.582-.795-1.36-1.193-2.339-1.193-.663 0-1.266.222-1.807.659-.54.44-.892 1.016-1.057 1.729-.082.332-.126.603-.126.817v2.016c0 .878.271 1.62.808 2.227.54.603 1.241.908 2.107.908 1.014 0 1.802-.392 2.364-1.17.565-.779.848-1.806.848-3.083Zm18.304 1.392c0 1.426-.5 2.586-1.492 3.481-1.092.978-2.617 1.468-4.572 1.468-1.806 0-3.254-.348-4.346-1.044l.622-2.238c1.179.697 2.474 1.045 3.884 1.045 1.014 0 1.802-.23 2.365-.684.564-.456.849-1.065.849-1.826 0-.681-.236-1.252-.699-1.716-.465-.464-1.235-.896-2.316-1.292-2.938-1.095-4.409-2.695-4.409-4.8 0-1.376.52-2.502 1.557-3.382 1.036-.879 2.411-1.318 4.121-1.318 1.528 0 2.8.265 3.81.796l-.674 2.188c-.951-.514-2.025-.77-3.225-.77-.949 0-1.693.232-2.225.696-.448.414-.675.92-.675 1.519 0 .66.259 1.21.773 1.64.447.397 1.261.83 2.439 1.293 1.446.581 2.508 1.259 3.188 2.037.684.778 1.025 1.75 1.025 2.907Zm8.913-5.369h-2.964v5.867c0 1.492.522 2.237 1.569 2.237.481 0 .879-.04 1.194-.125l.075 2.039c-.53.198-1.227.297-2.091.297-1.062 0-1.892-.324-2.491-.971-.597-.647-.897-1.731-.897-3.258v-6.09h-1.766v-2.016h1.766v-2.212l2.641-.796v3.008h2.964v2.02Zm13.346 3.928c0 1.857-.532 3.382-1.594 4.575-1.111 1.228-2.589 1.84-4.432 1.84-1.778 0-3.192-.588-4.247-1.763-1.054-1.178-1.581-2.661-1.581-4.45 0-1.873.545-3.407 1.631-4.6 1.088-1.193 2.554-1.79 4.396-1.79 1.776 0 3.202.59 4.282 1.765 1.032 1.141 1.545 2.614 1.545 4.423Zm-2.787.062c0-1.107-.24-2.057-.72-2.851-.564-.96-1.371-1.44-2.417-1.44-1.077 0-1.903.48-2.466 1.44-.481.794-.721 1.76-.721 2.9 0 1.11.24 2.061.721 2.853.582.96 1.393 1.44 2.443 1.44 1.028 0 1.834-.49 2.417-1.464.494-.813.743-1.769.743-2.878Zm11.531-3.644a4.693 4.693 0 0 0-.847-.074c-.946 0-1.678.355-2.192 1.07-.447.63-.671 1.426-.671 2.387v6.34h-2.689v-8.278a84.667 84.667 0 0 0-.079-3.805h2.343l.098 2.313h.074c.285-.795.732-1.436 1.345-1.916a3.255 3.255 0 0 1 1.943-.647c.249 0 .473.018.673.05l.002 2.56Zm12.026 3.11c.007.408-.026.816-.099 1.217h-8.066c.03 1.194.421 2.108 1.17 2.738.68.562 1.559.844 2.639.844 1.194 0 2.284-.19 3.264-.57l.421 1.862c-1.145.498-2.497.746-4.058.746-1.876 0-3.349-.551-4.421-1.652-1.07-1.102-1.606-2.582-1.606-4.437 0-1.821.498-3.339 1.496-4.549 1.044-1.292 2.455-1.938 4.231-1.938 1.745 0 3.065.646 3.962 1.938.71 1.024 1.067 2.293 1.067 3.8Zm-2.564-.697c.019-.797-.158-1.483-.522-2.064-.466-.748-1.182-1.12-2.142-1.12-.879 0-1.595.363-2.14 1.094-.448.58-.714 1.278-.796 2.088l5.6.002Z" fill="#1F294C"/></g><g id="Group_3"><path id="Vector_3" d="M51.957 15.81c-.748 0-1.395-.036-1.933-.097V7.61a14.659 14.659 0 0 1 2.276-.17c3.084 0 4.504 1.514 4.504 3.984 0 2.848-1.677 4.387-4.847 4.387Zm.452-7.332c-.416 0-.77.025-1.065.086v6.159c.16.025.465.036.893.036 2.02 0 3.171-1.148 3.171-3.299 0-1.918-1.04-2.982-3-2.982Zm8.82 7.395c-1.737 0-2.863-1.296-2.863-3.055 0-1.834 1.15-3.141 2.962-3.141 1.713 0 2.864 1.234 2.864 3.044 0 1.856-1.186 3.152-2.962 3.152Zm.051-5.231c-.955 0-1.566.891-1.566 2.138 0 1.223.624 2.114 1.554 2.114s1.553-.953 1.553-2.14c0-1.208-.611-2.112-1.54-2.112Zm12.823-.843-1.86 5.939H71.03l-.77-2.58a19.552 19.552 0 0 1-.479-1.917h-.025c-.097.647-.281 1.296-.477 1.918l-.82 2.579h-1.224l-1.75-5.939h1.358l.673 2.823c.159.673.293 1.308.404 1.907h.025c.097-.5.256-1.125.49-1.894L69.28 9.8h1.077l.809 2.774c.195.673.354 1.333.478 1.956h.035c.086-.61.22-1.26.404-1.955l.722-2.775 1.298-.001Zm6.848 5.939H79.63v-3.41c0-1.05-.404-1.577-1.2-1.577-.783 0-1.322.673-1.322 1.455v3.532h-1.321v-4.242c0-.525-.013-1.088-.05-1.698H76.9l.062.916H77c.355-.634 1.077-1.037 1.885-1.037 1.249 0 2.069.953 2.069 2.505l-.002 3.556Zm3.645 0h-1.323V7.074h1.323v8.664Zm4.82.135c-1.737 0-2.865-1.296-2.865-3.055 0-1.834 1.15-3.141 2.962-3.141 1.713 0 2.864 1.234 2.864 3.044.001 1.856-1.187 3.152-2.962 3.152Zm.049-5.231c-.955 0-1.567.891-1.567 2.138 0 1.223.626 2.114 1.553 2.114.93 0 1.553-.953 1.553-2.14.002-1.208-.609-2.112-1.54-2.112Zm8.123 5.096-.096-.684h-.035c-.404.55-.993.819-1.74.819-1.065 0-1.822-.746-1.822-1.748 0-1.466 1.273-2.224 3.476-2.224v-.11c0-.782-.415-1.174-1.235-1.174-.586 0-1.1.148-1.553.441l-.269-.867c.55-.343 1.236-.514 2.042-.514 1.554 0 2.338.818 2.338 2.457v2.187c0 .6.027 1.064.086 1.418l-1.192-.001Zm-.181-2.958c-1.469 0-2.205.355-2.205 1.197 0 .624.38.928.907.928.672 0 1.297-.512 1.297-1.208v-.917Zm7.705 2.958-.061-.954h-.037c-.38.72-1.018 1.088-1.909 1.088-1.434 0-2.496-1.259-2.496-3.03 0-1.858 1.101-3.166 2.604-3.166.796 0 1.36.268 1.678.807h.026v-3.41h1.323v7.064c0 .574.014 1.112.049 1.6h-1.177Zm-.195-3.495c0-.83-.551-1.54-1.392-1.54-.98 0-1.579.868-1.579 2.09 0 1.197.621 2.017 1.552 2.017.831 0 1.419-.722 1.419-1.577v-.99Zm9.711 3.63c-1.736 0-2.863-1.296-2.863-3.055 0-1.834 1.151-3.141 2.962-3.141 1.714 0 2.864 1.234 2.864 3.044.001 1.856-1.186 3.152-2.963 3.152Zm.05-5.231c-.954 0-1.566.891-1.566 2.138 0 1.223.625 2.114 1.553 2.114.931 0 1.554-.953 1.554-2.14.002-1.208-.609-2.112-1.541-2.112Zm10.021 5.096h-1.323v-3.41c0-1.05-.403-1.577-1.199-1.577-.784 0-1.321.673-1.321 1.455v3.532h-1.323v-4.242c0-.525-.012-1.088-.049-1.698h1.163l.062.916h.036c.355-.634 1.077-1.038 1.884-1.038 1.249 0 2.07.953 2.07 2.504v3.558Zm8.893-4.95h-1.454v2.885c0 .734.255 1.1.769 1.1.233 0 .429-.025.587-.062l.036 1.003c-.256.098-.599.147-1.025.147-1.042 0-1.665-.574-1.665-2.078V10.79h-.868v-.99h.868V8.711l1.298-.392v1.479h1.454v.99Zm6.997 4.95h-1.32v-3.385c0-1.063-.403-1.6-1.2-1.6-.685 0-1.323.464-1.323 1.405v3.58h-1.32V7.074h1.32v3.568h.027c.416-.648 1.019-.966 1.788-.966 1.259 0 2.028.977 2.028 2.53v3.532Zm7.169-2.652h-3.967c.026 1.124.771 1.759 1.875 1.759.586 0 1.126-.098 1.603-.28l.205.916c-.562.244-1.225.366-1.995.366-1.86 0-2.961-1.173-2.961-2.993 0-1.82 1.127-3.19 2.812-3.19 1.52 0 2.473 1.125 2.473 2.824a2.5 2.5 0 0 1-.045.598Zm-1.212-.94c0-.918-.463-1.565-1.308-1.565-.759 0-1.36.66-1.445 1.564h2.753Z" fill="#1F294C"/></g></g></g><defs><clipPath id="clip0_224_2745"><rect width="160" height="48" rx="12" fill="#fff"/></clipPath></defs></svg>