<svg version="1.0" xmlns="http://www.w3.org/2000/svg" width="933.333" height="933.333" viewBox="0 0 700 700"><path d="M329.8 1.5c-.2.2-4.3.6-9.2 1-5 .4-9.7.8-10.6 1-.9.2-4.1.6-7.1.9-4.7.5-14.8 2.2-24.4 4.1-38.2 7.6-80.5 24.6-114 45.9-7.1 4.5-21.4 14.2-24 16.3-.6.4-5.5 4.4-11 8.7-12.6 10-39.7 37-50.2 50.1-7.8 9.7-23.3 31-23.3 32 0 .2-1.7 3.1-3.7 6.2-6 9.2-14.5 25.7-23.3 44.8-7.2 15.7-19.4 55.2-21.5 70-.4 2.2-.8 4.7-1 5.5-.3.8-.7 3.5-1 6-.3 2.5-.8 5.7-1 7.2-2.4 14-3 23.9-2.9 49.3 0 22.4.3 29.6 1.9 41.5 7.2 55.5 24.5 102.9 54.2 149 4.7 7.2 12.6 18.3 14.3 20 .3.3 2.7 3.4 5.5 7 7.6 9.9 9.7 12.3 26.5 29 8.5 8.6 18.9 18.3 23 21.5 4.1 3.3 7.7 6.2 8 6.5 2.1 2.1 23.6 17.2 29.2 20.5 1 .5 5.8 3.4 10.7 6.3 12.1 7.1 30 15.9 43.6 21.5 23.5 9.7 60.9 19.6 84 22.3 3.3.4 7.1.8 8.5 1 18.9 2.5 58.1 2.5 79-.1 4.1-.5 12.6-1.8 20.5-3.1 36-5.9 81.3-22.2 110.8-39.7 4.3-2.6 8.1-4.7 8.3-4.7.3 0 5.3-3.2 11.2-7.2 15.5-10.3 24.4-17.2 41-31.3 4.7-4 21.9-21.3 28.4-28.5 31-34.9 55.8-77.5 70.4-121.7 3.4-10.4 9.7-33.6 10.7-39.8.3-1.7 1.2-6.8 2-11.5 2.5-13.7 3.3-20.8 4.3-36.4 1.2-18.9.7-45.5-1.1-59.6-.2-1.9-.7-5.8-1-8.5-.3-2.8-1.7-11.2-3.1-18.9-8.7-47.4-28.2-94.2-55.9-134.1C593.4 89.4 531.5 43 460.4 19.2c-8.4-2.8-22.5-6.9-26.2-7.7-.9-.1-3.5-.8-5.7-1.4-2.2-.5-5.5-1.3-7.4-1.6-1.9-.3-3.7-.7-4-.9-.3-.2-3.1-.7-6.1-1.1-3-.4-5.7-.8-6-1-.3-.1-3.2-.6-6.5-.9-3.3-.4-7.1-.9-8.5-1.1-8.1-1.2-19-1.8-38.2-2-12-.1-21.9-.1-22 0zM380 59.4c1.9.3 5.5.8 8 1.1 30.9 3.9 60.2 12.7 89.9 27.2 41.2 20.1 77.8 50.1 104 85.3 3.1 4.1 5.8 7.7 6.1 8 1 .9 9.8 14.6 14.5 22.6 8.7 14.7 24.5 50.1 24.5 55 0 .8.4 2.2 1 3.2 2.4 4.3 9 32 10.5 44.7.2 1.6.6 4.6.9 6.5 3.1 21.5 2.6 58.4-1 81-.3 1.9-.7 5.1-1 7-1.4 10.7-8.6 36.5-15 53.8-22.2 59.4-70.3 116-125.4 147.6-25.3 14.5-58 27.3-83.5 32.7-3.3.7-6.2 1.3-6.5 1.4-.3 0-2.6.4-5.1.8-2.5.4-5.8 1-7.2 1.3-15.6 2.8-52.9 3.9-72.2 2.2-7.6-.7-24.2-3.1-29.5-4.3-1.4-.3-4.5-1-7-1.5s-5.4-1.1-6.6-1.4c-16.2-3.4-47.8-15.5-66.9-25.7-14-7.4-33.8-20.3-44.5-29.1-35.6-29.3-60.5-60-80-98.8-10.8-21.5-22-55.1-25.4-76-.3-1.9-.8-4.6-1-6-.5-3.2-1.8-11.9-2.1-14.5-.8-6.1-1.8-25.2-1.8-33 0-9.2 1.2-32.5 1.8-33.5.1-.3.6-3.4.9-6.9 1.9-18.4 9.4-46.8 18.1-68.6 5.3-13.3 17.2-37.4 20.1-40.6.8-.8 1.4-1.9 1.4-2.3 0-2.1 19.7-29.5 28.9-40.1 7.9-9.1 28.3-28.6 38.1-36.4 21.3-17 38-27 67.5-40.6 10.3-4.8 33.6-12.4 48.5-15.9 13.9-3.2 27.2-5.3 39.1-6.2 4.6-.4 8.6-.8 8.8-1 .6-.6 44.9.4 49.1 1z"/><path d="M329.9 84.4c-.2.2-3.9.7-8.1 1-4.3.3-8.3.8-9 1.1-.7.2-3.1.6-5.3.9-17.4 2.1-42.5 9.4-62.6 17.9-36.2 15.5-67.6 38.1-93.9 67.7-4.1 4.6-8.5 9.6-9.7 11-1.3 1.3-2.3 2.8-2.3 3.1 0 .3-.9 1.7-2.1 3-4.8 5.5-17.8 26.2-24 38.4-13.9 27.3-23.6 57.9-26.5 83-.3 3.3-.8 6.3-1 6.6-.6 1.1-1.7 20.9-1.8 30.9 0 13 1.1 27.5 2.9 39.5 2.1 14.3 2.5 16.6 3.5 20 .5 1.6 1.1 4.2 1.4 5.6.9 5.4 6.7 23.6 11.2 34.7 8.7 22.1 26.2 52.3 38.9 67.2 2.6 3 6.1 7.1 7.7 9 19.1 22.6 47.4 45 75.9 60.2 19.1 10.2 47.9 20.9 65.4 24.4 1.1.2 3.1.6 4.5.9 4.2.9 13.6 2.5 18 3.1 22.5 3.1 62.2 2.5 81.5-1.2 1.1-.2 3.4-.7 5-.9 1.7-.3 7.6-1.7 13.2-3 52-12.4 100.9-42 137.2-83 6.2-7 21.5-27.6 24.7-33.3 1.5-2.6 3.3-5.4 3.9-6.2.7-.8 3.9-6.7 7.2-13 16.1-31.1 26-64.9 29-99.5 1.3-14.7.5-55.6-1.1-58.5-.2-.3-.7-3-1-6-3.1-25.8-15.8-62.6-30.9-89.5-6.8-12-21.7-34-25.1-37-.6-.6-2.9-3.2-5.1-6-6.1-7.6-23.4-24.6-32.7-32-4.6-3.6-9.2-7.3-10.3-8.2-1.1-.9-7.3-5.2-13.9-9.5-14.8-9.7-37.9-21.2-54.7-27.2-15.4-5.5-41.1-11.9-52.9-13.1-3-.4-8.2-1-11.4-1.4-5.7-.8-45-1.3-45.7-.7zM356 208.5c16.9 1.5 37.4 6.9 53.3 14.1 4.3 2 8.3 3.2 8.7 2.8.4-.5 2.5-3.4 4.6-6.4l3.9-5.5 12 .1c6.6.1 12.5.2 13.1.3.9.1 3.2 6.5 4.9 13.9 1 4.1 18.1 67.5 20.5 75.9l1.8 6.2-3.2 1c-1.7.5-6.7 1.9-11.1 3.1-4.4 1.2-9.9 2.8-12.2 3.6-2.4.7-5.7 1.6-7.5 1.9-1.7.3-3.5.8-3.9 1-.4.3-1-.7-1.3-2.1-.4-1.4-2.3-6-4.2-10.2-9.5-20.7-26.1-38.2-44-46.7-13.2-6.2-32.6-8.7-46-5.9-20.6 4.3-38.3 19.6-47.5 41.3-4.4 10.2-5.1 9.7 11.6 9.6H324v31.6l-16.7-.2c-15.6-.2-16.7-.1-17.3 1.7-.4 1-.6 3-.4 4.4.1 1.4.5 5.4.9 9l.6 6.5 16.5-.3 16.5-.2-.3 15.7-.3 15.8-11.5.1c-13.6.1-13.6 0-6.8 11.5 8.7 14.7 24.3 27.4 40.8 33.5 6.5 2.3 9.2 2.7 21 3 13.5.3 18.5-.4 29.5-4.1 20.2-6.8 41.5-23.2 56.2-43.2l4.6-6.2 10 7.7c5.5 4.2 11.1 8.6 12.6 9.6 1.4 1.1 4 3.2 5.8 4.7l3.1 2.7-3.6 5.9c-4.5 7.2-3.6 5.9-13 17.3-16.9 20.4-39.7 36.4-66.6 46.7-9.9 3.7-25.6 8-32.9 8.8-2.5.3-5.6.8-6.8 1.1-3.5.7-24.1.6-29.6-.1-7.5-1-8.4-1.2-15.4-2.9-14.2-3.3-31.8-11.5-47.4-22.1-25-16.9-42-38.6-52.1-66.3-1.3-3.6-2.8-6.8-3.3-7.1-.5-.3-7.4-.5-15.4-.5l-14.5.2-6.2-14.7c-3.4-8-6.5-15.1-6.7-15.8-.4-1 3.5-1.3 17.3-1.2H212c1.3-.1 1.6-1.8 1.5-10.6 0-10.5 0-10.5-2.5-10.6-1.4-.1-12 0-23.6 0-16 .1-21.4-.2-22.1-1.1-1.7-2.2-12.4-28.2-12.1-29.3.2-.6 11.9-1 32.6-1h32.3l3.4-10.2c6.8-20.4 15.8-34.9 30.9-49.8 23.7-23.5 52.2-36.6 83.1-38.2 6.1-.3 11.2-.7 11.4-.9.2-.2.7-.2 1 0 .3.2 4 .7 8.1 1.1z"/></svg>