<svg aria-hidden="true" style="width:0;height:0;position:absolute;overflow:hidden" xmlns="http://www.w3.org/2000/svg"><defs><symbol id="icon-done-check" viewBox="0 0 24 24"><path id="Path" d="m19.546 7-10 10L5 12.454" stroke="#FF9838" stroke-width="2" stroke-linecap="round" stroke-linejoin="round"/></symbol><symbol id="icon-world" viewBox="0 0 24 24"><path d="M12 3c4.982 0 9 4.018 9 9s-4.018 9-9 9M12 21c-4.982 0-9-4.018-9-9s4.018-9 9-9" stroke="#282828" stroke-width="2" stroke-linecap="round" stroke-linejoin="round"/><path fill-rule="evenodd" clip-rule="evenodd" d="M10.168 4.06c-2.89 4.825-2.89 11.056 0 15.881a2.114 2.114 0 0 0 3.665 0c2.89-4.825 2.89-11.056 0-15.881a2.114 2.114 0 0 0-3.665 0Z" stroke="#282828" stroke-width="2" stroke-linecap="round" stroke-linejoin="round"/><path d="M3 12h18" stroke="#282828" stroke-width="2" stroke-linecap="round" stroke-linejoin="round"/></symbol><symbol id="icon-arrow-right" viewBox="0 0 24 24"><path id="Vector 1" d="m10.266 16 3.467-4.048L10.266 8" stroke-width="2" stroke-linecap="round"/></symbol><symbol id="icon-flag-ukraine" viewBox="0 0 24 24"><path d="M21.333 3.333H2.667A2.667 2.667 0 0 0 0 6v6h24V6a2.667 2.667 0 0 0-2.667-2.667Z" fill="#0057B8"/><path d="M24 18a2.667 2.667 0 0 1-2.667 2.667H2.667A2.667 2.667 0 0 1 0 18v-6h24v6Z" fill="gold"/></symbol><symbol id="icon-secondary-button-arrow" viewBox="0 0 24 24"><path id="Path" d="M19 12H5" stroke="currentColor" stroke-width="2" stroke-linecap="round" stroke-linejoin="round"/><path id="Path_2" d="m14 17 5-5" stroke="currentColor" stroke-width="2" stroke-linecap="round" stroke-linejoin="round"/><path id="Path_3" d="m14 7 5 5" stroke="currentColor" stroke-width="2" stroke-linecap="round" stroke-linejoin="round"/></symbol><symbol id="icon-location-tag" viewBox="0 0 24 24"><path id="Path" fill-rule="evenodd" clip-rule="evenodd" d="M12 13v0a3 3 0 0 1-3-3v0a3 3 0 0 1 3-3v0a3 3 0 0 1 3 3v0a3 3 0 0 1-3 3Z" stroke="#E0EAF9" stroke-width="2" stroke-linecap="round" stroke-linejoin="round"/><path id="Path_2" fill-rule="evenodd" clip-rule="evenodd" d="M12 21s-7-5.75-7-11a7 7 0 1 1 14 0c0 5.25-7 11-7 11Z" stroke="#E0EAF9" stroke-width="2" stroke-linecap="round" stroke-linejoin="round"/></symbol><symbol id="icon-phone" viewBox="0 0 24 24"><path id="Path" d="M9.75 3v1.688c0 .31.252.562.563.562h3.374c.311 0 .563-.252.563-.563V3" stroke="#E0EAF9" stroke-linecap="round" stroke-linejoin="round"/><path id="Path_2" d="M10.313 17.625h3.374" stroke="#E0EAF9" stroke-width="2" stroke-linecap="round" stroke-linejoin="round"/><path id="Path_3" fill-rule="evenodd" clip-rule="evenodd" d="M8.625 3h6.75a2.25 2.25 0 0 1 2.25 2.25v13.5a2.25 2.25 0 0 1-2.25 2.25h-6.75a2.25 2.25 0 0 1-2.25-2.25V5.25A2.25 2.25 0 0 1 8.625 3Z" stroke="#E0EAF9" stroke-width="2" stroke-linecap="round" stroke-linejoin="round"/></symbol></defs></svg>