<svg aria-hidden="true" style="width:0;height:0;position:absolute;overflow:hidden" xmlns="http://www.w3.org/2000/svg"><defs><symbol id="icon-done-check" viewBox="0 0 32 32"><path fill="gold" style="fill:var(--color6,gold)" d="M32 24a3.553 3.553 0 0 1-3.555 3.555H3.556A3.553 3.553 0 0 1 .001 24v-8h32v8z"/></symbol><symbol id="icon-accordion" viewBox="0 0 32 32"><path fill="gold" style="fill:var(--color6,gold)" d="M32 24a3.553 3.553 0 0 1-3.555 3.555H3.556A3.553 3.553 0 0 1 .001 24v-8h32v8z"/></symbol><symbol id="icon-repo-button" viewBox="0 0 32 32"><path fill="gold" style="fill:var(--color6,gold)" d="M32 24a3.553 3.553 0 0 1-3.555 3.555H3.556A3.553 3.553 0 0 1 .001 24v-8h32v8z"/></symbol><symbol id="icon-depositary-button" viewBox="0 0 32 32"><path fill="gold" style="fill:var(--color6,gold)" d="M32 24a3.553 3.553 0 0 1-3.555 3.555H3.556A3.553 3.553 0 0 1 .001 24v-8h32v8z"/></symbol><symbol id="icon-bonds-button" viewBox="0 0 32 32"><path fill="gold" style="fill:var(--color6,gold)" d="M32 24a3.553 3.553 0 0 1-3.555 3.555H3.556A3.553 3.553 0 0 1 .001 24v-8h32v8z"/></symbol><symbol id="icon-shares-button" viewBox="0 0 37 32"><path fill="gold" style="fill:var(--color6,gold)" d="M32 24a3.553 3.553 0 0 1-3.555 3.555H3.556A3.553 3.553 0 0 1 .001 24v-8h32v8z"/></symbol><symbol id="icon-world" viewBox="0 0 24 24"><path d="M12 3c4.982 0 9 4.018 9 9s-4.018 9-9 9M12 21c-4.982 0-9-4.018-9-9s4.018-9 9-9" stroke="#282828" stroke-width="2" stroke-linecap="round" stroke-linejoin="round"/><path fill-rule="evenodd" clip-rule="evenodd" d="M10.168 4.06c-2.89 4.825-2.89 11.056 0 15.881a2.114 2.114 0 0 0 3.665 0c2.89-4.825 2.89-11.056 0-15.881a2.114 2.114 0 0 0-3.665 0Z" stroke="#282828" stroke-width="2" stroke-linecap="round" stroke-linejoin="round"/><path d="M3 12h18" stroke="#282828" stroke-width="2" stroke-linecap="round" stroke-linejoin="round"/></symbol><symbol id="icon-bond-ua-app-apple" viewBox="0 0 107 32"><path stroke-linejoin="round" stroke-linecap="round" stroke-width="2.667" d="M4 16h24"/></symbol><symbol id="icon-bond-ua-app-google" viewBox="0 0 107 32"><path fill="#ea4335" style="fill:var(--color1,#ea4335)" d="m15.714 14.942-8.35 8.652c.094.329.262.632.493.886s.516.453.836.582a2.276 2.276 0 0 0 1.987-.139l9.396-5.292-4.362-4.689z"/><path fill="#fbbc04" style="fill:var(--color2,#fbbc04)" d="m24.158 13.471-4.063-2.302-4.573 3.969 4.592 4.48 4.032-2.277c.357-.185.656-.463.865-.804a2.163 2.163 0 0 0 0-2.262 2.202 2.202 0 0 0-.865-.804h.012z"/><path fill="#4285f4" style="fill:var(--color3,#4285f4)" d="M7.364 7.175c-.05.185-.076.375-.075.566v15.286c0 .191.026.381.075.566L16 15.162 7.364 7.174z"/><path fill="#34a853" style="fill:var(--color4,#34a853)" d="m15.776 15.385 4.318-4.215-9.383-5.317a2.337 2.337 0 0 0-1.164-.314c-.494-.001-.975.158-1.369.452s-.68.708-.815 1.178l8.412 8.215z"/></symbol><symbol id="icon-arrow-right" viewBox="0 0 24 24"><path id="Vector 1" d="m10.266 16 3.467-4.048L10.266 8" stroke="#282828" stroke-width="2" stroke-linecap="round"/></symbol><symbol id="icon-flag-ukraine" viewBox="0 0 24 24"><path d="M21.333 3.333H2.667A2.667 2.667 0 0 0 0 6v6h24V6a2.667 2.667 0 0 0-2.667-2.667Z" fill="#0057B8"/><path d="M24 18a2.667 2.667 0 0 1-2.667 2.667H2.667A2.667 2.667 0 0 1 0 18v-6h24v6Z" fill="gold"/></symbol></defs></svg>