<svg aria-hidden="true" style="width:0;height:0;position:absolute;overflow:hidden" xmlns="http://www.w3.org/2000/svg"><defs><symbol id="icon-done-check" viewBox="0 0 24 24"><path id="Path" d="m19.546 7-10 10L5 12.454" stroke="#FF9838" stroke-width="2" stroke-linecap="round" stroke-linejoin="round"/></symbol><symbol id="icon-world" viewBox="0 0 24 24"><path d="M12 3c4.982 0 9 4.018 9 9s-4.018 9-9 9M12 21c-4.982 0-9-4.018-9-9s4.018-9 9-9" stroke="#282828" stroke-width="2" stroke-linecap="round" stroke-linejoin="round"/><path fill-rule="evenodd" clip-rule="evenodd" d="M10.168 4.06c-2.89 4.825-2.89 11.056 0 15.881a2.114 2.114 0 0 0 3.665 0c2.89-4.825 2.89-11.056 0-15.881a2.114 2.114 0 0 0-3.665 0Z" stroke="#282828" stroke-width="2" stroke-linecap="round" stroke-linejoin="round"/><path d="M3 12h18" stroke="#282828" stroke-width="2" stroke-linecap="round" stroke-linejoin="round"/></symbol><symbol id="icon-arrow-right" viewBox="0 0 24 24"><path id="Vector 1" d="m10.266 16 3.467-4.048L10.266 8" stroke="#282828" stroke-width="2" stroke-linecap="round"/></symbol><symbol id="icon-flag-ukraine" viewBox="0 0 24 24"><path d="M21.333 3.333H2.667A2.667 2.667 0 0 0 0 6v6h24V6a2.667 2.667 0 0 0-2.667-2.667Z" fill="#0057B8"/><path d="M24 18a2.667 2.667 0 0 1-2.667 2.667H2.667A2.667 2.667 0 0 1 0 18v-6h24v6Z" fill="gold"/></symbol></defs></svg>