<svg aria-hidden="true" style="width:0;height:0;position:absolute;overflow:hidden" xmlns="http://www.w3.org/2000/svg"><defs><symbol id="icon-done-check" viewBox="0 0 24 24"><path id="Path" d="m19.546 7-10 10L5 12.454" stroke-width="2" stroke-linecap="round" stroke-linejoin="round"/></symbol><symbol id="icon-circle" viewBox="0 0 24 24"><circle cx="12" cy="12" r="4"/></symbol><symbol id="icon-warning" viewBox="0 0 24 24"><path d="M12 13.12V9.38M11.999 16.125a.25.25 0 1 0 .002.5.25.25 0 0 0-.002-.5" stroke="#323232" stroke-width="2" stroke-linecap="round" stroke-linejoin="round"/><path fill-rule="evenodd" clip-rule="evenodd" d="m14.029 4.139 7.659 13.404c.89 1.558-.235 3.497-2.029 3.497H4.341c-1.795 0-2.92-1.939-2.029-3.497L9.971 4.139c.897-1.571 3.161-1.571 4.058 0Z" stroke="#323232" stroke-width="2" stroke-linecap="round" stroke-linejoin="round"/></symbol><symbol id="icon-world" viewBox="0 0 24 24"><path d="M12 3c4.982 0 9 4.018 9 9s-4.018 9-9 9M12 21c-4.982 0-9-4.018-9-9s4.018-9 9-9" stroke="#282828" stroke-width="2" stroke-linecap="round" stroke-linejoin="round"/><path fill-rule="evenodd" clip-rule="evenodd" d="M10.168 4.06c-2.89 4.825-2.89 11.056 0 15.881a2.114 2.114 0 0 0 3.665 0c2.89-4.825 2.89-11.056 0-15.881a2.114 2.114 0 0 0-3.665 0Z" stroke="#282828" stroke-width="2" stroke-linecap="round" stroke-linejoin="round"/><path d="M3 12h18" stroke="#282828" stroke-width="2" stroke-linecap="round" stroke-linejoin="round"/></symbol><symbol id="icon-arrow-right" viewBox="0 0 24 24"><path d="m10.266 16 3.467-4.048L10.266 8" stroke-width="2" stroke-linecap="round"/></symbol><symbol id="icon-arrow-down" viewBox="0 0 24 24"><path d="m8 10.266 4.048 3.468L16 10.266" stroke-width="2" stroke-linecap="round"/></symbol><symbol id="icon-arrow-up" viewBox="0 0 24 24"><path d="m10.266 16 3.468-4.048L10.266 8" stroke-width="2" stroke-linecap="round"/></symbol><symbol id="icon-arrow-left" viewBox="0 0 24 24"><path id="Vector 1" d="m13.734 16-3.468-4.048L13.734 8" stroke-width="2" stroke-linecap="round"/></symbol><symbol id="icon-flag-ukraine" viewBox="0 0 24 24"><path d="M21.333 3.333H2.667A2.667 2.667 0 0 0 0 6v6h24V6a2.667 2.667 0 0 0-2.667-2.667Z" fill="#0057B8"/><path d="M24 18a2.667 2.667 0 0 1-2.667 2.667H2.667A2.667 2.667 0 0 1 0 18v-6h24v6Z" fill="gold"/></symbol><symbol id="icon-secondary-button-arrow" viewBox="0 0 24 24"><path id="Path" d="M19 12H5" stroke="currentColor" stroke-width="2" stroke-linecap="round" stroke-linejoin="round"/><path id="Path_2" d="m14 17 5-5" stroke="currentColor" stroke-width="2" stroke-linecap="round" stroke-linejoin="round"/><path id="Path_3" d="m14 7 5 5" stroke="currentColor" stroke-width="2" stroke-linecap="round" stroke-linejoin="round"/></symbol><symbol id="icon-location-tag" viewBox="0 0 24 24"><path id="Path" fill-rule="evenodd" clip-rule="evenodd" d="M12 13v0a3 3 0 0 1-3-3v0a3 3 0 0 1 3-3v0a3 3 0 0 1 3 3v0a3 3 0 0 1-3 3Z" stroke="#E0EAF9" stroke-width="2" stroke-linecap="round" stroke-linejoin="round"/><path id="Path_2" fill-rule="evenodd" clip-rule="evenodd" d="M12 21s-7-5.75-7-11a7 7 0 1 1 14 0c0 5.25-7 11-7 11Z" stroke="#E0EAF9" stroke-width="2" stroke-linecap="round" stroke-linejoin="round"/></symbol><symbol id="icon-phone" viewBox="0 0 24 24"><path id="Path" d="M9.75 3v1.688c0 .31.252.562.563.562h3.374c.311 0 .563-.252.563-.563V3" stroke="#E0EAF9" stroke-linecap="round" stroke-linejoin="round"/><path id="Path_2" d="M10.313 17.625h3.374" stroke="#E0EAF9" stroke-width="2" stroke-linecap="round" stroke-linejoin="round"/><path id="Path_3" fill-rule="evenodd" clip-rule="evenodd" d="M8.625 3h6.75a2.25 2.25 0 0 1 2.25 2.25v13.5a2.25 2.25 0 0 1-2.25 2.25h-6.75a2.25 2.25 0 0 1-2.25-2.25V5.25A2.25 2.25 0 0 1 8.625 3Z" stroke="#E0EAF9" stroke-width="2" stroke-linecap="round" stroke-linejoin="round"/></symbol><symbol id="icon-twitter-new" viewBox="0 0 24 24"><path d="M17.114 17.734h-1.353L6.931 6.19h1.452l8.731 11.544Z"/><path fill-rule="evenodd" clip-rule="evenodd" d="M12 24c6.627 0 12-5.373 12-12S18.627 0 12 0 0 5.373 0 12s5.373 12 12 12Zm7.06-19.195h-2.442l-4.022 4.598-3.478-4.598H4.08l6.018 7.87-5.704 6.52h2.443l4.402-5.03 3.848 5.03H20L13.726 10.9l5.333-6.095Z"/></symbol><symbol id="icon-facebook" viewBox="0 0 24 24"><path fill-rule="evenodd" clip-rule="evenodd" d="M12 24c6.627 0 12-5.373 12-12S18.627 0 12 0 0 5.373 0 12s5.373 12 12 12Zm1.435-16.052c0-.966.24-1.404 1.068-1.404l1.173.003V4.11A10.538 10.538 0 0 0 14.132 4c-2.463 0-3.346 1.38-3.346 3.992v1.559H9v2.59h1.786V20h2.65v-7.86h1.986l.222-2.589h-2.209V7.948Z"/></symbol><symbol id="icon-telegram" viewBox="0 0 24 24"><path d="M12 0C5.373 0 0 5.373 0 12s5.373 12 12 12 12-5.373 12-12S18.627 0 12 0Zm5.894 8.221-1.97 9.28c-.145.658-.537.818-1.084.508l-3-2.21-1.446 1.394a.759.759 0 0 1-.6.295h-.005l.213-3.054 5.56-5.022c.24-.213-.054-.334-.373-.121L8.32 13.617l-2.96-.924c-.64-.203-.658-.64.135-.954l11.566-4.458c.538-.196 1.006.128.832.941l.001-.001Z"/></symbol><symbol id="icon-search" viewBox="0 0 24 24"><path id="Path" fill-rule="evenodd" clip-rule="evenodd" d="M18.934 11.467a7.467 7.467 0 1 1-14.934 0 7.467 7.467 0 1 1 14.934 0Z" stroke-width="2" stroke-linecap="round" stroke-linejoin="round"/><path id="Path_2" d="m20 20-3-3" stroke-width="2" stroke-linecap="round" stroke-linejoin="round"/></symbol></defs></svg>