<svg aria-hidden="true" style="position: absolute; width: 0; height: 0; overflow: hidden;" version="1.1" xmlns="http://www.w3.org/2000/svg" xmlns:xlink="http://www.w3.org/1999/xlink">
  <defs>
    <symbol id="icon-done-check" viewBox="0 0 24 24">
      <path
        id="Path"
        d="M19.5455 7L9.54545 17L5 12.4545"
        stroke="#FF9838"
        stroke-width="2"
        stroke-linecap="round"
        stroke-linejoin="round"
      />
    </symbol>
    <symbol id="icon-world" viewBox="0 0 24 24">
      <path 
        d="M12 3C16.982 3 21 7.018 21 12C21 16.982 16.982 21 12 21"
        stroke="#282828"
        stroke-width="2"
        stroke-linecap="round"
        stroke-linejoin="round"
      />
      <path
        d="M12 21C7.018 21 3 16.982 3 12C3 7.018 7.018 3 12 3"
        stroke="#282828"
        stroke-width="2"
        stroke-linecap="round"
        stroke-linejoin="round"
      />
      <path
        fill-rule="evenodd"
        clip-rule="evenodd"
        d="M10.168 4.06C7.27799 8.885 7.27799 15.116 10.168 19.941C11.014 21.354 12.987 21.354 13.833 19.941C16.723 15.116 16.723 8.885 13.833 4.06C12.986 2.647 11.014 2.647 10.168 4.06Z"
        stroke="#282828"
        stroke-width="2"
        stroke-linecap="round"
        stroke-linejoin="round"
      />
      <path
        d="M3 12H21"
        stroke="#282828"
        stroke-width="2"
        stroke-linecap="round"
        stroke-linejoin="round"
      />
    </symbol>
    <symbol id="icon-arrow-right" viewBox="0 0 24 24">
      <path
        id="Vector 1"
        d="M10.2661 16L13.7334 11.9516L10.2661 8.00002"
        stroke="#282828"
        stroke-width="2"
        stroke-linecap="round"
      />
    </symbol>
    <symbol id="icon-flag-ukraine" viewBox="0 0 24 24">
      <path
        d="M21.3333 3.33325H2.66667C1.95942 3.33325 1.28115 3.6142 0.781049 4.1143C0.280952 4.6144 0 5.29267 0 5.99992L0 11.9999H24V5.99992C24 5.29267 23.719 4.6144 23.219 4.1143C22.7189 3.6142 22.0406 3.33325 21.3333 3.33325Z"
        fill="#0057B8"
      />
      <path
        d="M24 18C24 18.7072 23.719 19.3855 23.219 19.8856C22.7189 20.3857 22.0406 20.6667 21.3333 20.6667H2.66667C1.95942 20.6667 1.28115 20.3857 0.781049 19.8856C0.280952 19.3855 0 18.7072 0 18V12H24V18Z"
        fill="#FFD700"
      />
    </symbol>
  </defs>
</svg>
