<svg aria-hidden="true" style="position: absolute; width: 0; height: 0; overflow: hidden;" version="1.1" xmlns="http://www.w3.org/2000/svg" xmlns:xlink="http://www.w3.org/1999/xlink">
  <defs>
    <symbol id="icon-done-check" viewBox="0 0 24 24">
      <path
        id="Path"
        d="M19.5455 7L9.54545 17L5 12.4545"
        stroke="#FF9838"
        stroke-width="2"
        stroke-linecap="round"
        stroke-linejoin="round"
      />
    </symbol>
    <symbol id="icon-world" viewBox="0 0 24 24">
      <path 
        d="M12 3C16.982 3 21 7.018 21 12C21 16.982 16.982 21 12 21"
        stroke="#282828"
        stroke-width="2"
        stroke-linecap="round"
        stroke-linejoin="round"
      />
      <path
        d="M12 21C7.018 21 3 16.982 3 12C3 7.018 7.018 3 12 3"
        stroke="#282828"
        stroke-width="2"
        stroke-linecap="round"
        stroke-linejoin="round"
      />
      <path
        fill-rule="evenodd"
        clip-rule="evenodd"
        d="M10.168 4.06C7.27799 8.885 7.27799 15.116 10.168 19.941C11.014 21.354 12.987 21.354 13.833 19.941C16.723 15.116 16.723 8.885 13.833 4.06C12.986 2.647 11.014 2.647 10.168 4.06Z"
        stroke="#282828"
        stroke-width="2"
        stroke-linecap="round"
        stroke-linejoin="round"
      />
      <path
        d="M3 12H21"
        stroke="#282828"
        stroke-width="2"
        stroke-linecap="round"
        stroke-linejoin="round"
      />
    </symbol>
    <symbol id="icon-arrow-right" viewBox="0 0 24 24">
      <path
        d="M10.2661 16L13.7334 11.9516L10.2661 8.00002"
        stroke-width="2"
        stroke-linecap="round"
      />
    </symbol>
    <symbol id="icon-arrow-down" viewBox="0 0 24 24">
      <path
        d="M8 10.2664L12.0484 13.7337L16 10.2664" 
        stroke-width="2"
        stroke-linecap="round"
      />
    </symbol>
    <symbol id="icon-arrow-up" viewBox="0 0 24 24">
      <path
        d="M10.2664 16L13.7337 11.9516L10.2664 8.00003"
        stroke-width="2"
        stroke-linecap="round"
      />
    </symbol>
    <symbol id="icon-arrow-left" viewBox="0 0 24 24">
      <path
        id="Vector 1"
        d="M13.7336 16L10.2663 11.9516L13.7336 8.00003"
        stroke-width="2"
        stroke-linecap="round"
      />
    </symbol>
    <symbol id="icon-flag-ukraine" viewBox="0 0 24 24">
      <path
        d="M21.3333 3.33325H2.66667C1.95942 3.33325 1.28115 3.6142 0.781049 4.1143C0.280952 4.6144 0 5.29267 0 5.99992L0 11.9999H24V5.99992C24 5.29267 23.719 4.6144 23.219 4.1143C22.7189 3.6142 22.0406 3.33325 21.3333 3.33325Z"
        fill="#0057B8"
      />
      <path
        d="M24 18C24 18.7072 23.719 19.3855 23.219 19.8856C22.7189 20.3857 22.0406 20.6667 21.3333 20.6667H2.66667C1.95942 20.6667 1.28115 20.3857 0.781049 19.8856C0.280952 19.3855 0 18.7072 0 18V12H24V18Z"
        fill="#FFD700"
      />
    </symbol>
    <symbol id="icon-secondary-button-arrow" viewBox="0 0 24 24">
      <path id="Path" d="M19 12H5" stroke="currentColor" stroke-width="2" stroke-linecap="round" stroke-linejoin="round"/>
      <path id="Path_2" d="M14 17L19 12" stroke="currentColor" stroke-width="2" stroke-linecap="round" stroke-linejoin="round"/>
      <path id="Path_3" d="M14 7L19 12" stroke="currentColor" stroke-width="2" stroke-linecap="round" stroke-linejoin="round"/>
    </symbol>
    <symbol id="icon-location-tag" viewBox="0 0 24 24">
      <path id="Path" fill-rule="evenodd" clip-rule="evenodd" d="M12 13V13C10.343 13 9 11.657 9 10V10C9 8.343 10.343 7 12 7V7C13.657 7 15 8.343 15 10V10C15 11.657 13.657 13 12 13Z" stroke="#E0EAF9" stroke-width="2" stroke-linecap="round" stroke-linejoin="round"/>
      <path id="Path_2" fill-rule="evenodd" clip-rule="evenodd" d="M12 21C12 21 5 15.25 5 10C5 6.134 8.134 3 12 3C15.866 3 19 6.134 19 10C19 15.25 12 21 12 21Z" stroke="#E0EAF9" stroke-width="2" stroke-linecap="round" stroke-linejoin="round"/>
    </symbol>
    <symbol id="icon-phone" viewBox="0 0 24 24">
      <path id="Path" d="M9.75 3V4.6875C9.75 4.99781 10.002 5.25 10.3125 5.25H13.6875C13.998 5.25 14.25 4.99781 14.25 4.6875V3" stroke="#E0EAF9" stroke-linecap="round" stroke-linejoin="round"/>
      <path id="Path_2" d="M10.3125 17.625H13.6875" stroke="#E0EAF9" stroke-width="2" stroke-linecap="round" stroke-linejoin="round"/>
      <path id="Path_3" fill-rule="evenodd" clip-rule="evenodd" d="M8.625 3H15.375C16.6181 3 17.625 4.00687 17.625 5.25V18.75C17.625 19.9931 16.6181 21 15.375 21H8.625C7.38187 21 6.375 19.9931 6.375 18.75V5.25C6.375 4.00687 7.38187 3 8.625 3Z" stroke="#E0EAF9" stroke-width="2" stroke-linecap="round" stroke-linejoin="round"/>    </symbol>
    <symbol id="icon-twitter-new" viewBox="0 0 24 24">
      <path d="M17.114 17.7337H15.7614L6.9314 6.1896H8.3829L17.114 17.7337Z"/>
      <path fill-rule="evenodd" clip-rule="evenodd" d="M12 24C18.6274 24 24 18.6274 24 12C24 5.37258 18.6274 0 12 0C5.37258 0 0 5.37258 0 12C0 18.6274 5.37258 24 12 24ZM19.0591 4.80526H16.6181L12.5957 9.40325L9.11787 4.80526H4.08081L10.0993 12.6752L4.39517 19.1947H6.83769L11.2401 14.1643L15.0877 19.1947H20L13.7262 10.9005L19.0591 4.80526Z"/>
    </symbol>
    <symbol id="icon-facebook" viewBox="0 0 24 24">
      <path fill-rule="evenodd" clip-rule="evenodd" d="M12 24C18.6274 24 24 18.6274 24 12C24 5.37259 18.6274 0 12 0C5.37256 0 0 5.37259 0 12C0 18.6274 5.37256 24 12 24ZM13.4352 7.94807C13.4352 6.9818 13.6746 6.5437 14.5026 6.5437L15.6763 6.54677V4.10957C15.1639 4.03517 14.6481 3.9986 14.1319 4.00005C11.6685 4.00005 10.7856 5.37985 10.7856 7.9921V9.55104H9V12.1408H10.7856V20H13.436V12.1408H15.4224L15.6437 9.55104H13.4352V7.94807Z"/>
    </symbol>
    <symbol id="icon-telegram" viewBox="0 0 24 24">
      <path d="M12 0C5.373 0 0 5.373 0 12C0 18.627 5.373 24 12 24C18.627 24 24 18.627 24 12C24 5.373 18.627 0 12 0ZM17.894 8.221L15.924 17.501C15.779 18.159 15.387 18.319 14.84 18.009L11.84 15.799L10.394 17.193C10.254 17.373 10.037 17.488 9.794 17.488C9.792 17.488 9.791 17.488 9.789 17.488L10.002 14.434L15.562 9.412C15.802 9.199 15.508 9.078 15.189 9.291L8.32 13.617L5.36 12.693C4.72 12.49 4.702 12.053 5.495 11.739L17.061 7.281C17.599 7.085 18.067 7.409 17.893 8.222L17.894 8.221Z"/>
    </symbol>
    <symbol id="icon-search" viewBox="0 0 24 24">
      <path id="Path" fill-rule="evenodd" clip-rule="evenodd" d="M18.934 11.467V11.467C18.934 15.591 15.591 18.934 11.467 18.934V18.934C7.343 18.934 4 15.591 4 11.467V11.467C4 7.343 7.343 4 11.467 4V4C15.591 4 18.934 7.343 18.934 11.467Z" stroke-width="2" stroke-linecap="round" stroke-linejoin="round"/>
      <path id="Path_2" d="M20 20L17 17" stroke-width="2" stroke-linecap="round" stroke-linejoin="round"/>
    </symbol>
  </defs>
</svg>
