<svg width="24" height="24" viewBox="0 0 24 24" fill="none" xmlns="http://www.w3.org/2000/svg">
<g clip-path="url(#clip0_217_2321)">
<path fill-rule="evenodd" clip-rule="evenodd" d="M12 24C18.6274 24 24 18.6274 24 12C24 5.37259 18.6274 0 12 0C5.37256 0 0 5.37259 0 12C0 18.6274 5.37256 24 12 24ZM13.4352 7.94807C13.4352 6.9818 13.6746 6.5437 14.5026 6.5437L15.6763 6.54677V4.10957C15.1639 4.03517 14.6481 3.9986 14.1319 4.00005C11.6685 4.00005 10.7856 5.37985 10.7856 7.9921V9.55104H9V12.1408H10.7856V20H13.436V12.1408H15.4224L15.6437 9.55104H13.4352V7.94807Z" fill="#3757be"/>
</g>
<defs>
<clipPath id="clip0_217_2321">
<rect width="24" height="24" fill="white"/>
</clipPath>
</defs>
</svg>
