<svg width="24" height="24" viewBox="0 0 24 24" fill="none" xmlns="http://www.w3.org/2000/svg">
<g clip-path="url(#clip0_217_2324)">
<path d="M17.114 17.7337H15.7614L6.9314 6.1896H8.3829L17.114 17.7337Z" fill="#3757be"/>
<path fill-rule="evenodd" clip-rule="evenodd" d="M12 24C18.6274 24 24 18.6274 24 12C24 5.37258 18.6274 0 12 0C5.37258 0 0 5.37258 0 12C0 18.6274 5.37258 24 12 24ZM19.0591 4.80526H16.6181L12.5957 9.40325L9.11787 4.80526H4.08081L10.0993 12.6752L4.39517 19.1947H6.83769L11.2401 14.1643L15.0877 19.1947H20L13.7262 10.9005L19.0591 4.80526Z" fill="#3757be"/>
</g>
<defs>
<clipPath id="clip0_217_2324">
<rect width="24" height="24" fill="white"/>
</clipPath>
</defs>
</svg>
