<svg width="81" height="80" viewBox="0 0 81 80" fill="none" xmlns="http://www.w3.org/2000/svg">
<g id="Analytics_Line 1">
<g id="Layer 2">
<path id="Vector" d="M9.65186 36.4256H29.1127V42.5056H12.3543C11.6381 42.5056 10.9512 42.2213 10.4445 41.7152C9.93779 41.2091 9.6527 40.5226 9.65186 39.8064V36.4256Z" fill="#FE7911"/>
<path id="Vector_2" d="M30.42 32.8672L32.7624 58.9136L70.604 61.88H29.3384L30.42 32.8672Z" fill="#FE7911"/>
</g>
<g id="Layer 1">
<path id="Vector_3" d="M77.0902 61.3904H71.9046V32.32C71.9046 32.0229 71.7866 31.7381 71.5766 31.528C71.3666 31.318 71.0817 31.2 70.7846 31.2H55.159V14.4912C55.1578 13.2873 54.679 12.133 53.8277 11.2818C52.9764 10.4305 51.8221 9.95165 50.6182 9.95038H12.5766C11.3727 9.95165 10.2185 10.4305 9.36721 11.2818C8.51592 12.133 8.03711 13.2873 8.03584 14.4912V35.232C7.91874 35.4131 7.85645 35.6243 7.85645 35.84C7.85645 36.0557 7.91874 36.2668 8.03584 36.448V39.2672C8.03711 40.4711 8.51592 41.6253 9.36721 42.4766C10.2185 43.3279 11.3727 43.8067 12.5766 43.808H22.927L21.0614 49.496H17.3558C17.0588 49.496 16.7739 49.614 16.5639 49.824C16.3538 50.0341 16.2358 50.3189 16.2358 50.616V53.68C16.2358 53.977 16.3538 54.2619 16.5639 54.4719C16.7739 54.682 17.0588 54.8 17.3558 54.8H28.2182V61.3904H22.7606C22.4636 61.3904 22.1787 61.5084 21.9687 61.7184C21.7586 61.9285 21.6406 62.2133 21.6406 62.5104V65.0304C21.6423 66.5223 22.2357 67.9526 23.2907 69.0075C24.3456 70.0625 25.7759 70.6559 27.2678 70.6576H72.583C74.0749 70.6559 75.5053 70.0625 76.5602 69.0075C77.6151 67.9526 78.2085 66.5223 78.2102 65.0304V62.5104C78.2102 62.2133 78.0922 61.9285 77.8822 61.7184C77.6722 61.5084 77.3873 61.3904 77.0902 61.3904ZM75.9702 65.0304C75.9694 65.9285 75.6123 66.7895 74.9772 67.4246C74.3422 68.0596 73.4811 68.4167 72.583 68.4176H27.2678C26.3699 68.4163 25.5091 68.059 24.8741 67.4241C24.2392 66.7891 23.8819 65.9283 23.8806 65.0304V63.6304H41.247C41.5111 64.6938 42.1229 65.6384 42.9854 66.3141C43.8478 66.9899 44.9114 67.358 46.007 67.36H53.0342C54.129 67.3584 55.192 66.9912 56.0543 66.3167C56.9166 65.6422 57.529 64.699 57.7942 63.6368H75.9702V65.0304ZM18.4758 52.56V51.736H28.2182V52.56H18.4758ZM10.2758 39.2672V36.96H28.2182V41.568H12.5766C11.9667 41.5671 11.382 41.3245 10.9507 40.8932C10.5194 40.4619 10.2767 39.8771 10.2758 39.2672ZM12.5766 12.1904H50.6182C51.2282 12.1912 51.8129 12.4339 52.2442 12.8652C52.6755 13.2965 52.9182 13.8812 52.919 14.4912V31.2H29.3382C29.0412 31.2 28.7563 31.318 28.5463 31.528C28.3362 31.7381 28.2182 32.0229 28.2182 32.32V34.72H10.2758V14.4912C10.2767 13.8812 10.5194 13.2965 10.9507 12.8652C11.382 12.4339 11.9667 12.1912 12.5766 12.1904ZM28.2182 43.808V49.496H23.4182L25.2838 43.808H28.2182ZM30.4582 33.4464H69.6582V61.3904H57.1782C57.0618 61.3505 56.9397 61.33 56.8166 61.3296H42.223C42.1 61.33 41.9779 61.3505 41.8614 61.3904H30.4582V33.4464ZM53.0342 65.12H46.007C45.4989 65.1193 45.0015 64.9737 44.5733 64.7002C44.1451 64.4267 43.8038 64.0367 43.5894 63.576H55.4518C55.2375 64.0367 54.8962 64.4267 54.468 64.7002C54.0397 64.9737 53.5424 65.1193 53.0342 65.12Z" fill="#515151"/>
<path id="Vector_4" d="M17.2261 21.416V29.6688C17.2261 29.9658 17.3441 30.2507 17.5541 30.4607C17.7642 30.6708 18.049 30.7888 18.3461 30.7888H22.1301C22.4271 30.7888 22.712 30.6708 22.922 30.4607C23.1321 30.2507 23.2501 29.9658 23.2501 29.6688V21.416C23.2501 21.1189 23.1321 20.834 22.922 20.624C22.712 20.414 22.4271 20.296 22.1301 20.296H18.3461C18.049 20.296 17.7642 20.414 17.5541 20.624C17.3441 20.834 17.2261 21.1189 17.2261 21.416ZM19.4661 22.536H21.0101V28.5488H19.4661V22.536Z" fill="#9A9A9A"/>
<path id="Vector_5" d="M40.6454 30.7888H44.4294C44.7264 30.7888 45.0113 30.6708 45.2213 30.4607C45.4314 30.2507 45.5494 29.9658 45.5494 29.6688V21.416C45.5494 21.1189 45.4314 20.834 45.2213 20.624C45.0113 20.414 44.7264 20.296 44.4294 20.296H40.6454C40.3483 20.296 40.0635 20.414 39.8534 20.624C39.6434 20.834 39.5254 21.1189 39.5254 21.416V29.6688C39.5254 29.9658 39.6434 30.2507 39.8534 30.4607C40.0635 30.6708 40.3483 30.7888 40.6454 30.7888ZM41.7654 22.536H43.3094V28.5488H41.7654V22.536Z" fill="#9A9A9A"/>
<path id="Vector_6" d="M25.6439 30.7888H29.4279C29.725 30.7888 30.0098 30.6708 30.2199 30.4607C30.4299 30.2507 30.5479 29.9658 30.5479 29.6688V18.1008C30.5479 17.8037 30.4299 17.5189 30.2199 17.3088C30.0098 17.0988 29.725 16.9808 29.4279 16.9808H25.6439C25.3469 16.9808 25.062 17.0988 24.852 17.3088C24.6419 17.5189 24.5239 17.8037 24.5239 18.1008V29.6688C24.5239 29.9658 24.6419 30.2507 24.852 30.4607C25.062 30.6708 25.3469 30.7888 25.6439 30.7888ZM26.7639 19.2208H28.3079V28.5488H26.7639V19.2208Z" fill="#9A9A9A"/>
<path id="Vector_7" d="M33.0775 30.7888H36.8615C37.1586 30.7888 37.4434 30.6708 37.6535 30.4608C37.8635 30.2507 37.9815 29.9658 37.9815 29.6688V14.8144C37.9815 14.5174 37.8635 14.2325 37.6535 14.0224C37.4434 13.8124 37.1586 13.6944 36.8615 13.6944H33.0775C32.7805 13.6944 32.4956 13.8124 32.2856 14.0224C32.0755 14.2325 31.9575 14.5174 31.9575 14.8144V29.6688C31.9575 29.9658 32.0755 30.2507 32.2856 30.4608C32.4956 30.6708 32.7805 30.7888 33.0775 30.7888ZM34.1975 15.9344H35.7415V28.5488H34.1975V15.9344Z" fill="#9A9A9A"/>
<path id="Vector_8" d="M13.1205 16.5984H17.2645C17.5615 16.5984 17.8464 16.4804 18.0564 16.2704C18.2665 16.0603 18.3845 15.7754 18.3845 15.4784C18.3845 15.1814 18.2665 14.8965 18.0564 14.6864C17.8464 14.4764 17.5615 14.3584 17.2645 14.3584H13.1205C12.8234 14.3584 12.5386 14.4764 12.3285 14.6864C12.1185 14.8965 12.0005 15.1814 12.0005 15.4784C12.0005 15.7754 12.1185 16.0603 12.3285 16.2704C12.5386 16.4804 12.8234 16.5984 13.1205 16.5984Z" fill="#9A9A9A"/>
<path id="Vector_9" d="M13.1205 19.6624H15.2821C15.5791 19.6624 15.864 19.5444 16.074 19.3343C16.2841 19.1243 16.4021 18.8394 16.4021 18.5424C16.4021 18.2453 16.2841 17.9604 16.074 17.7504C15.864 17.5404 15.5791 17.4224 15.2821 17.4224H13.1205C12.8234 17.4224 12.5386 17.5404 12.3285 17.7504C12.1185 17.9604 12.0005 18.2453 12.0005 18.5424C12.0005 18.8394 12.1185 19.1243 12.3285 19.3343C12.5386 19.5444 12.8234 19.6624 13.1205 19.6624Z" fill="#9A9A9A"/>
<path id="Vector_10" d="M35.8933 48.224C36.3133 48.2245 36.7293 48.1419 37.1173 47.9808L40.1333 50.5264C40.0107 50.9684 39.9842 51.4314 40.0555 51.8845C40.1268 52.3375 40.2941 52.7701 40.5464 53.1531C40.7987 53.5361 41.13 53.8607 41.5181 54.1051C41.9062 54.3495 42.3421 54.508 42.7965 54.5699C43.2509 54.6319 43.7134 54.5959 44.1527 54.4644C44.5921 54.3329 44.9982 54.1088 45.3438 53.8074C45.6894 53.5059 45.9665 53.1339 46.1565 52.7165C46.3465 52.2991 46.4449 51.8458 46.4453 51.3872C46.4448 50.876 46.3219 50.3723 46.0869 49.9184L49.9876 44.4576C50.7263 44.5896 51.4879 44.4567 52.1382 44.0824C52.7886 43.708 53.286 43.1162 53.5428 42.4112H59.9557C60.2183 43.1182 60.7212 43.7105 61.3762 44.0843C62.0313 44.4582 62.7969 44.5899 63.5393 44.4565C64.2817 44.323 64.9535 43.9329 65.4374 43.3543C65.9212 42.7757 66.1863 42.0455 66.1863 41.2912C66.1863 40.5369 65.9212 39.8067 65.4374 39.2281C64.9535 38.6495 64.2817 38.2594 63.5393 38.1259C62.7969 37.9925 62.0313 38.1242 61.3762 38.4981C60.7212 38.8719 60.2183 39.4642 59.9557 40.1712H53.5428C53.3801 39.7342 53.1241 39.3379 52.7928 39.0098C52.4614 38.6817 52.0626 38.4296 51.6241 38.2711C51.1855 38.1126 50.7177 38.0515 50.2531 38.092C49.7886 38.1325 49.3384 38.2737 48.9339 38.5056C48.5294 38.7376 48.1802 39.0549 47.9106 39.4354C47.641 39.8159 47.4575 40.2505 47.3728 40.7091C47.2881 41.1676 47.3042 41.6391 47.4201 42.0908C47.5359 42.5425 47.7487 42.9636 48.0437 43.3248L44.4165 48.4016C43.9357 48.2091 43.4152 48.1365 42.9001 48.19C42.385 48.2435 41.8906 48.4216 41.4597 48.7088L38.7749 46.4432C39.0862 45.8178 39.1853 45.108 39.057 44.4213C38.9287 43.7345 38.5801 43.1083 38.064 42.6375C37.5478 42.1667 36.8923 41.877 36.1967 41.8122C35.5011 41.7475 34.8034 41.9112 34.2092 42.2786C33.615 42.646 33.1567 43.1971 32.9039 43.8483C32.651 44.4995 32.6173 45.2155 32.8079 45.8876C32.9984 46.5597 33.4029 47.1514 33.9599 47.573C34.517 47.9946 35.1962 48.2231 35.8949 48.224H35.8933ZM34.9189 45.0096C34.9185 44.8164 34.9755 44.6275 35.0827 44.4668C35.1898 44.306 35.3422 44.1807 35.5206 44.1066C35.699 44.0325 35.8954 44.0131 36.0849 44.0507C36.2743 44.0883 36.4484 44.1813 36.585 44.3179C36.7216 44.4545 36.8146 44.6285 36.8522 44.818C36.8898 45.0075 36.8703 45.2038 36.7963 45.3822C36.7222 45.5606 36.5968 45.7131 36.4361 45.8202C36.2753 45.9273 36.0864 45.9843 35.8933 45.984C35.635 45.9836 35.3874 45.8808 35.2047 45.6981C35.0221 45.5155 34.9193 45.2679 34.9189 45.0096ZM44.1989 51.3872C44.1989 51.5802 44.1416 51.7689 44.0344 51.9294C43.9271 52.0899 43.7747 52.215 43.5964 52.2889C43.418 52.3628 43.2218 52.3821 43.0324 52.3444C42.8431 52.3068 42.6692 52.2138 42.5327 52.0773C42.3962 51.9408 42.3033 51.7669 42.2656 51.5776C42.2279 51.3883 42.2473 51.192 42.3211 51.0137C42.395 50.8354 42.5201 50.6829 42.6806 50.5757C42.8411 50.4684 43.0298 50.4112 43.2228 50.4112C43.3515 50.4106 43.479 50.4353 43.5981 50.4841C43.7171 50.5328 43.8254 50.6046 43.9167 50.6953C44.0079 50.7859 44.0804 50.8937 44.1299 51.0125C44.1794 51.1312 44.205 51.2586 44.2053 51.3872H44.1989ZM49.5509 41.2912C49.5509 41.0982 49.6081 40.9095 49.7153 40.749C49.8226 40.5885 49.975 40.4634 50.1534 40.3895C50.3317 40.3156 50.5279 40.2963 50.7173 40.334C50.9066 40.3716 51.0805 40.4646 51.217 40.6011C51.3535 40.7376 51.4464 40.9115 51.4841 41.1008C51.5218 41.2901 51.5024 41.4864 51.4286 41.6647C51.3547 41.843 51.2296 41.9955 51.0691 42.1027C50.9086 42.21 50.7199 42.2672 50.5269 42.2672C50.2692 42.2651 50.0229 42.1614 49.8413 41.9786C49.6597 41.7959 49.5577 41.5488 49.5572 41.2912H49.5509ZM63.9365 41.2912C63.9365 41.4842 63.8792 41.6729 63.772 41.8334C63.6647 41.9939 63.5123 42.119 63.3339 42.1929C63.1556 42.2668 62.9594 42.2861 62.77 42.2484C62.5807 42.2108 62.4068 42.1178 62.2703 41.9813C62.1338 41.8448 62.0409 41.6709 62.0032 41.4816C61.9655 41.2923 61.9849 41.096 62.0587 40.9177C62.1326 40.7394 62.2577 40.5869 62.4182 40.4797C62.5787 40.3724 62.7674 40.3152 62.9605 40.3152C63.0891 40.3146 63.2166 40.3393 63.3357 40.3881C63.4547 40.4368 63.563 40.5086 63.6543 40.5993C63.7455 40.6899 63.818 40.7977 63.8675 40.9165C63.917 41.0352 63.9426 41.1626 63.9428 41.2912H63.9365Z" fill="#9A9A9A"/>
<path id="Vector_11" d="M63.5765 48.416H55.4677C55.1706 48.416 54.8857 48.534 54.6757 48.744C54.4657 48.954 54.3477 49.2389 54.3477 49.536C54.3477 49.833 54.4657 50.1179 54.6757 50.3279C54.8857 50.538 55.1706 50.656 55.4677 50.656H63.5765C63.8735 50.656 64.1584 50.538 64.3684 50.3279C64.5785 50.1179 64.6965 49.833 64.6965 49.536C64.6965 49.2389 64.5785 48.954 64.3684 48.744C64.1584 48.534 63.8735 48.416 63.5765 48.416Z" fill="#9A9A9A"/>
<path id="Vector_12" d="M63.5765 52.3344H55.4677C55.1706 52.3344 54.8857 52.4524 54.6757 52.6624C54.4657 52.8724 54.3477 53.1573 54.3477 53.4544C54.3477 53.7514 54.4657 54.0363 54.6757 54.2463C54.8857 54.4563 55.1706 54.5744 55.4677 54.5744H63.5765C63.8735 54.5744 64.1584 54.4563 64.3684 54.2463C64.5785 54.0363 64.6965 53.7514 64.6965 53.4544C64.6965 53.1573 64.5785 52.8724 64.3684 52.6624C64.1584 52.4524 63.8735 52.3344 63.5765 52.3344Z" fill="#9A9A9A"/>
</g>
</g>
</svg>
