<svg width="81" height="80" viewBox="0 0 81 80" fill="none" xmlns="http://www.w3.org/2000/svg">
<g id="Contract_Line 1">
<g id="Layer 5">
<g id="Layer 1">
<path id="Vector" d="M19.7337 7.2782H12.7065V16.1982H19.7337V7.2782Z" fill="#FE7911"/>
<path id="Vector_2" d="M48.0169 45.5134C46.9305 47.2046 46.7833 49.3406 46.9929 51.339C47.1881 53.195 47.7369 55.147 49.1657 56.3486C49.5625 56.683 50.0377 56.9742 50.2393 57.4526C50.3498 57.7775 50.3907 58.1221 50.3593 58.4638L50.2729 62.011C51.4654 62.2594 52.6969 62.2539 53.8873 61.995C54.2617 61.9134 54.6553 61.7918 54.8985 61.4958C55.1801 61.1582 55.1945 60.6798 55.1977 60.2398L55.2057 58.4798C55.2278 58.1394 55.1877 57.7978 55.0873 57.4718C54.9273 57.0478 54.5817 56.731 54.2681 56.4046C51.8201 53.8558 51.1401 49.7598 52.6329 46.5598C53.4121 44.8878 55.4569 42.7886 52.4025 42.8686C50.7001 42.9102 48.9145 44.1182 48.0169 45.5134Z" fill="#FE7911"/>
</g>
<path id="Vector_3" d="M30.14 23.2656H42.1688C42.4659 23.2656 42.7507 23.1476 42.9608 22.9376C43.1708 22.7276 43.2888 22.4427 43.2888 22.1456C43.2888 21.8486 43.1708 21.5637 42.9608 21.3537C42.7507 21.1436 42.4659 21.0256 42.1688 21.0256H30.14C29.843 21.0256 29.5581 21.1436 29.3481 21.3537C29.138 21.5637 29.02 21.8486 29.02 22.1456C29.02 22.4427 29.138 22.7276 29.3481 22.9376C29.5581 23.1476 29.843 23.2656 30.14 23.2656Z" fill="#9A9A9A"/>
<path id="Vector_4" d="M46.2201 23.536H50.4105C50.7075 23.536 50.9924 23.418 51.2025 23.208C51.4125 22.9979 51.5305 22.7131 51.5305 22.416C51.5305 22.119 51.4125 21.8341 51.2025 21.6241C50.9924 21.414 50.7075 21.296 50.4105 21.296H46.2201C45.9231 21.296 45.6382 21.414 45.4281 21.6241C45.2181 21.8341 45.1001 22.119 45.1001 22.416C45.1001 22.7131 45.2181 22.9979 45.4281 23.208C45.6382 23.418 45.9231 23.536 46.2201 23.536Z" fill="#9A9A9A"/>
<path id="Vector_5" d="M50.4134 26.9728H38.3798C38.0827 26.9728 37.7978 27.0908 37.5878 27.3009C37.3778 27.5109 37.2598 27.7958 37.2598 28.0928C37.2598 28.3899 37.3778 28.6748 37.5878 28.8848C37.7978 29.0948 38.0827 29.2128 38.3798 29.2128H50.4086C50.7056 29.2128 50.9905 29.0948 51.2005 28.8848C51.4106 28.6748 51.5286 28.3899 51.5286 28.0928C51.5286 27.7958 51.4106 27.5109 51.2005 27.3009C50.9905 27.0908 50.7056 26.9728 50.4086 26.9728H50.4134Z" fill="#9A9A9A"/>
<path id="Vector_6" d="M30.14 29.4816H34.3304C34.6275 29.4816 34.9123 29.3636 35.1224 29.1536C35.3324 28.9436 35.4504 28.6587 35.4504 28.3616C35.4504 28.0646 35.3324 27.7797 35.1224 27.5697C34.9123 27.3596 34.6275 27.2416 34.3304 27.2416H30.14C29.843 27.2416 29.5581 27.3596 29.3481 27.5697C29.138 27.7797 29.02 28.0646 29.02 28.3616C29.02 28.6587 29.138 28.9436 29.3481 29.1536C29.5581 29.3636 29.843 29.4816 30.14 29.4816Z" fill="#9A9A9A"/>
<path id="Vector_7" d="M42.1688 33.0544H30.14C29.843 33.0544 29.5581 33.1724 29.3481 33.3825C29.138 33.5925 29.02 33.8774 29.02 34.1744C29.02 34.4715 29.138 34.7564 29.3481 34.9664C29.5581 35.1764 29.843 35.2944 30.14 35.2944H42.1688C42.4659 35.2944 42.7507 35.1764 42.9608 34.9664C43.1708 34.7564 43.2888 34.4715 43.2888 34.1744C43.2888 33.8774 43.1708 33.5925 42.9608 33.3825C42.7507 33.1724 42.4659 33.0544 42.1688 33.0544Z" fill="#9A9A9A"/>
<path id="Vector_8" d="M51.5337 34.4448C51.5337 34.1478 51.4157 33.8629 51.2057 33.6529C50.9956 33.4428 50.7107 33.3248 50.4137 33.3248H46.2201C45.9231 33.3248 45.6382 33.4428 45.4281 33.6529C45.2181 33.8629 45.1001 34.1478 45.1001 34.4448C45.1001 34.7419 45.2181 35.0267 45.4281 35.2368C45.6382 35.4468 45.9231 35.5648 46.2201 35.5648H50.4105C50.5578 35.5653 50.7038 35.5366 50.8401 35.4805C50.9763 35.4244 51.1002 35.342 51.2045 35.2379C51.3089 35.1339 51.3917 35.0103 51.4481 34.8742C51.5046 34.7381 51.5337 34.5922 51.5337 34.4448Z" fill="#9A9A9A"/>
<path id="Vector_9" d="M70.2728 50.4816C70.2701 48.5797 69.7208 46.7186 68.6902 45.1201C67.6596 43.5216 66.1912 42.2531 64.46 41.4656V9.41122C64.4587 8.46687 64.0831 7.56154 63.4155 6.89363C62.7479 6.22572 61.8428 5.84972 60.8984 5.84802H16.0648C14.8537 5.84929 13.6926 6.33129 12.8367 7.18812C11.9808 8.04495 11.5 9.20652 11.5 10.4176V15.9264C11.5 16.2235 11.618 16.5083 11.828 16.7184C12.0381 16.9284 12.323 17.0464 12.62 17.0464H18.396V63.0912C18.396 63.3883 18.514 63.6731 18.724 63.8832C18.9341 64.0932 19.219 64.2112 19.516 64.2112H54.3384V68.8176C54.3384 69.0256 54.3963 69.2295 54.5057 69.4064C54.615 69.5834 54.7715 69.7264 54.9575 69.8194C55.1436 69.9124 55.3518 69.9518 55.559 69.9331C55.7661 69.9144 55.964 69.8384 56.1304 69.7136L60.5032 66.432L64.156 69.1728C64.3211 69.2967 64.5172 69.3725 64.7227 69.392C64.9282 69.4114 65.135 69.3737 65.3204 69.283C65.5058 69.1923 65.6625 69.0521 65.7733 68.8779C65.884 68.7038 65.9445 68.5024 65.948 68.296L66.116 58.536C67.4006 57.6219 68.448 56.4139 69.1711 55.0129C69.8941 53.6118 70.2719 52.0583 70.2728 50.4816ZM61.1752 64.136C60.9813 63.9906 60.7455 63.912 60.5032 63.912C60.2609 63.912 60.0251 63.9906 59.8312 64.136L56.5784 66.5776V59.6304C58.9001 60.5962 61.5029 60.6391 63.8552 59.7504L63.7464 66.064L61.1752 64.136ZM13.74 10.4176C13.74 9.80033 13.985 9.20827 14.4212 8.77148C14.8574 8.33468 15.4491 8.08887 16.0664 8.08802C16.6836 8.08887 17.2752 8.33441 17.7116 8.77081C18.148 9.20721 18.3936 9.79886 18.3944 10.416V14.8064H13.74V10.4176ZM20.636 15.9264V9.41122C20.6263 8.91362 20.4238 8.43922 20.0712 8.08802H60.8984C61.2491 8.08845 61.5852 8.22804 61.833 8.47614C62.0808 8.72425 62.22 9.06057 62.22 9.41122V40.7536C61.6099 40.6364 60.99 40.5775 60.3688 40.5776C58.2982 40.5748 56.2789 41.2213 54.595 42.4261C52.9111 43.6309 51.6473 45.3334 50.9816 47.294C50.3159 49.2546 50.2817 51.3746 50.8839 53.3557C51.486 55.3368 52.6942 57.0791 54.3384 58.3376V61.9776H20.6344L20.636 15.9264ZM60.3688 58.1472C58.8526 58.1475 57.3704 57.6982 56.1096 56.8561C54.8488 56.014 53.866 54.8169 53.2856 53.4162C52.7051 52.0156 52.5531 50.4742 52.8487 48.9871C53.1443 47.5 53.8742 46.134 54.9462 45.0618C56.0182 43.9896 57.3841 43.2593 58.8711 42.9634C60.3582 42.6675 61.8995 42.8192 63.3003 43.3994C64.7011 43.9795 65.8984 44.962 66.7408 46.2227C67.5832 47.4833 68.0328 48.9655 68.0328 50.4816C68.029 52.5132 67.2204 54.4606 65.784 55.8973C64.3475 57.334 62.4004 58.143 60.3688 58.1472Z" fill="#515151"/>
<path id="Vector_10" d="M64.3849 53.5456C64.2133 53.3035 63.9527 53.1394 63.6602 53.0893C63.3677 53.0392 63.0673 53.1072 62.8249 53.2784C62.4101 53.5726 61.9413 53.7821 61.4454 53.8951C60.9496 54.0081 60.4363 54.0224 59.935 53.937C59.4336 53.8517 58.9539 53.6684 58.5234 53.3977C58.0929 53.127 57.7199 52.7741 57.4257 52.3592C57.1316 51.9443 56.922 51.4756 56.809 50.9797C56.696 50.4839 56.6818 49.9706 56.7671 49.4692C56.8525 48.9679 57.0357 48.4882 57.3065 48.0577C57.5772 47.6272 57.9301 47.2542 58.3449 46.96C58.5872 46.7882 58.7513 46.5271 58.8011 46.2342C58.851 45.9414 58.7824 45.6407 58.6105 45.3984C58.4387 45.1561 58.1776 44.992 57.8847 44.9422C57.5919 44.8924 57.2912 44.9609 57.0489 45.1328C56.394 45.597 55.8369 46.1856 55.4094 46.865C54.982 47.5444 54.6925 48.3014 54.5576 49.0927C54.4227 49.884 54.445 50.6942 54.6232 51.4769C54.8014 52.2595 55.132 52.9995 55.5961 53.6544C56.0603 54.3093 56.6489 54.8664 57.3283 55.2939C58.0078 55.7213 58.7647 56.0108 59.556 56.1457C60.3473 56.2806 61.1575 56.2583 61.9402 56.0801C62.7229 55.902 63.4628 55.5714 64.1177 55.1072C64.2378 55.0222 64.34 54.9144 64.4185 54.79C64.4969 54.6655 64.55 54.5268 64.5749 54.3818C64.5997 54.2368 64.5957 54.0883 64.5631 53.9448C64.5305 53.8013 64.47 53.6657 64.3849 53.5456Z" fill="#9A9A9A"/>
</g>
</g>
</svg>
