<svg width="81" height="80" viewBox="0 0 81 80" fill="none" xmlns="http://www.w3.org/2000/svg">
<g id="Bar Chart_Line 1">
<g id="Layer 10">
<path id="Vector" d="M24.0681 38.5264H18.3081V59.728H24.0681V38.5264Z" fill="#FE7911"/>
<path id="Vector_2" d="M37.7129 31.3215H31.7065V59.7263H37.7129V31.3215Z" fill="#FE7911"/>
<path id="Vector_3" d="M52.009 38.5264H46.249V59.728H52.009V38.5264Z" fill="#FE7911"/>
<path id="Vector_4" d="M65.273 27.9728H59.2666V59.728H65.273V27.9728Z" fill="#FE7911"/>
</g>
<g id="Layer 3">
<path id="Vector_5" d="M72.3273 68.6736H12.6937C12.3967 68.6736 12.1118 68.5556 11.9018 68.3456C11.6917 68.1355 11.5737 67.8507 11.5737 67.5536V14.5056C11.5737 14.2086 11.6917 13.9237 11.9018 13.7137C12.1118 13.5036 12.3967 13.3856 12.6937 13.3856C12.9908 13.3856 13.2756 13.5036 13.4857 13.7137C13.6957 13.9237 13.8137 14.2086 13.8137 14.5056V66.4336H72.3273C72.6244 66.4336 72.9092 66.5516 73.1193 66.7617C73.3293 66.9717 73.4473 67.2566 73.4473 67.5536C73.4473 67.8507 73.3293 68.1355 73.1193 68.3456C72.9092 68.5556 72.6244 68.6736 72.3273 68.6736Z" fill="#9A9A9A"/>
<path id="Vector_6" d="M39.9417 60.7521H31.8041C31.507 60.7521 31.2222 60.6341 31.0121 60.424C30.8021 60.214 30.6841 59.9291 30.6841 59.6321V30.2017C30.6841 29.9046 30.8021 29.6197 31.0121 29.4097C31.2222 29.1997 31.507 29.0817 31.8041 29.0817H39.9417C40.2387 29.0817 40.5236 29.1997 40.7336 29.4097C40.9437 29.6197 41.0617 29.9046 41.0617 30.2017V59.6321C41.0617 59.9291 40.9437 60.214 40.7336 60.424C40.5236 60.6341 40.2387 60.7521 39.9417 60.7521ZM32.9241 58.5121H38.8217V31.3217H32.9241V58.5121Z" fill="#515151"/>
<path id="Vector_7" d="M54.2171 60.752H46.0795C45.7824 60.752 45.4976 60.634 45.2875 60.424C45.0775 60.2139 44.9595 59.9291 44.9595 59.632V38.6992C44.9595 38.4022 45.0775 38.1173 45.2875 37.9073C45.4976 37.6972 45.7824 37.5792 46.0795 37.5792H54.2171C54.5141 37.5792 54.799 37.6972 55.009 37.9073C55.2191 38.1173 55.3371 38.4022 55.3371 38.6992V59.632C55.3371 59.9291 55.2191 60.2139 55.009 60.424C54.799 60.634 54.5141 60.752 54.2171 60.752ZM47.1995 58.512H53.0971V39.8192H47.1995V58.512Z" fill="#515151"/>
<path id="Vector_8" d="M26.2151 60.752H18.0775C17.7805 60.752 17.4956 60.634 17.2856 60.424C17.0755 60.2139 16.9575 59.9291 16.9575 59.632V38.6992C16.9575 38.4022 17.0755 38.1173 17.2856 37.9073C17.4956 37.6972 17.7805 37.5792 18.0775 37.5792H26.2151C26.5122 37.5792 26.797 37.6972 27.0071 37.9073C27.2171 38.1173 27.3351 38.4022 27.3351 38.6992V59.632C27.3351 59.9291 27.2171 60.2139 27.0071 60.424C26.797 60.634 26.5122 60.752 26.2151 60.752ZM19.1975 58.512H25.0951V39.8192H19.1975V58.512Z" fill="#515151"/>
<path id="Vector_9" d="M67.4251 60.752H59.2875C58.9904 60.752 58.7056 60.634 58.4955 60.4239C58.2855 60.2139 58.1675 59.929 58.1675 59.632V27.392C58.1675 27.0949 58.2855 26.8101 58.4955 26.6C58.7056 26.39 58.9904 26.272 59.2875 26.272H67.4251C67.7221 26.272 68.007 26.39 68.217 26.6C68.4271 26.8101 68.5451 27.0949 68.5451 27.392V59.632C68.5451 59.7791 68.5161 59.9247 68.4598 60.0606C68.4035 60.1965 68.321 60.3199 68.217 60.4239C68.113 60.5279 67.9896 60.6104 67.8537 60.6667C67.7178 60.723 67.5722 60.752 67.4251 60.752ZM60.4075 58.512H66.3051V28.512H60.4075V58.512Z" fill="#515151"/>
<path id="Vector_10" d="M22.1465 26.888C21.9167 26.888 21.6925 26.8172 21.5043 26.6854C21.3161 26.5536 21.173 26.3671 21.0944 26.1512C21.0158 25.9353 21.0055 25.7004 21.0649 25.4785C21.1243 25.2565 21.2506 25.0582 21.4265 24.9104L35.1529 13.3904C35.3538 13.224 35.6064 13.133 35.8673 13.133C36.1281 13.133 36.3808 13.224 36.5817 13.3904L48.9929 23.5568L62.6873 13.3584C62.8037 13.257 62.9398 13.1807 63.087 13.1344C63.2343 13.0881 63.3895 13.0727 63.543 13.0892C63.6965 13.1057 63.8449 13.1538 63.9789 13.2304C64.113 13.307 64.2297 13.4105 64.3218 13.5344C64.414 13.6582 64.4795 13.7998 64.5143 13.9502C64.5491 14.1006 64.5525 14.2566 64.5241 14.4083C64.4958 14.5601 64.4364 14.7043 64.3496 14.8321C64.2629 14.9598 64.1507 15.0682 64.0201 15.1504L49.6201 25.8704C49.4196 26.0198 49.1749 26.0978 48.925 26.092C48.675 26.0862 48.4342 25.9969 48.2409 25.8384L35.8809 15.7072L22.8665 26.6256C22.6648 26.795 22.4099 26.8879 22.1465 26.888Z" fill="#515151"/>
</g>
</g>
</svg>
