<svg width="93" height="80" viewBox="0 0 93 80" fill="none" xmlns="http://www.w3.org/2000/svg">
  <g id="Research_Line 1">
    <g id="Layer 1">
      <path id="Vector" d="M50.2586 27.371V17.9102H43.2314V35.7502L50.2586 27.371Z" fill="#FE7911"/>
      <path id="Vector_2" d="M34.3113 28.723H39.7161V47.9134L33.7705 47.3726L34.3113 28.723Z" fill="#FE7911"/>
      <path id="Vector_3" d="M37.0137 49.5358C37.0137 49.5358 40.2569 60.8878 47.5561 62.5102C52.0939 63.5021 56.7028 64.1344 61.3401 64.4014L62.4201 61.699C62.4201 61.699 47.2201 56.739 44.5801 53.0494C41.9401 49.3598 42.1481 48.1838 42.1481 48.1838L37.0137 49.5358Z" fill="#FE7911"/>
    </g>
    <g id="Layer 3">
      <path id="Vector_4" d="M20.8519 66.1232H62.7479C63.045 66.1232 63.3298 66.0052 63.5399 65.7952C63.7499 65.5851 63.8679 65.3003 63.8679 65.0032V62.4C66.5065 61.931 69.0192 60.9198 71.2471 59.4304L83.3159 72.7824C83.5152 73.0031 83.7939 73.1356 84.0908 73.1507C84.3877 73.1659 84.6785 73.0624 84.8991 72.8632C85.1198 72.664 85.2523 72.3853 85.2674 72.0883C85.2826 71.7914 85.1792 71.5007 84.9799 71.28L73.0439 58.08C75.8718 55.6898 77.9604 52.5436 79.0653 49.0097C80.1703 45.4757 80.2458 41.7001 79.2832 38.1248C78.3205 34.5494 76.3595 31.3222 73.6295 28.8208C70.8995 26.3194 67.5136 24.6472 63.8679 24V7.96961C63.8679 7.67257 63.7499 7.38769 63.5399 7.17765C63.3298 6.96761 63.045 6.84961 62.7479 6.84961H20.8519C20.5549 6.84961 20.27 6.96761 20.06 7.17765C19.8499 7.38769 19.7319 7.67257 19.7319 7.96961V65.0032C19.7319 65.3003 19.8499 65.5851 20.06 65.7952C20.27 66.0052 20.5549 66.1232 20.8519 66.1232ZM21.9719 9.08961H61.6279V23.7344C61.2391 23.712 60.8471 23.6976 60.4519 23.6976C57.1734 23.6919 53.947 24.5176 51.0743 26.0976V18.4128C51.0743 18.1158 50.9563 17.8309 50.7463 17.6208C50.5363 17.4108 50.2514 17.2928 49.9543 17.2928H43.4679C43.1709 17.2928 42.886 17.4108 42.676 17.6208C42.4659 17.8309 42.3479 18.1158 42.3479 18.4128V35.9536C41.9132 37.0346 41.5775 38.1528 41.3447 39.2944V28.6032C41.3447 28.3062 41.2267 28.0213 41.0167 27.8112C40.8067 27.6012 40.5218 27.4832 40.2247 27.4832H33.7367C33.4397 27.4832 33.1548 27.6012 32.9448 27.8112C32.7347 28.0213 32.6167 28.3062 32.6167 28.6032V47.1248H29.0007V26.08C29.0007 25.783 28.8827 25.4981 28.6727 25.288C28.4627 25.078 28.1778 24.96 27.8807 24.96C27.5837 24.96 27.2988 25.078 27.0888 25.288C26.8787 25.4981 26.7607 25.783 26.7607 26.08V48.2448C26.7607 48.5419 26.8787 48.8267 27.0888 49.0368C27.2988 49.2468 27.5837 49.3648 27.8807 49.3648H41.9511C43.2496 53.2452 45.7339 56.6198 49.0535 59.0123C52.373 61.4049 56.3601 62.6945 60.4519 62.6992C60.8471 62.6992 61.2391 62.6848 61.6279 62.6624V63.8832H21.9719V9.08961ZM60.4519 60.4592C57.0379 60.4595 53.7005 59.4474 50.8617 57.5509C48.023 55.6544 45.8104 52.9586 44.5037 49.8046C43.1971 46.6505 42.8552 43.1798 43.5211 39.8314C44.1871 36.483 45.831 33.4072 48.2451 30.9932C50.6592 28.5791 53.7349 26.9352 57.0833 26.2692C60.4317 25.6032 63.9024 25.9452 67.0565 27.2518C70.2106 28.5584 72.9063 30.7711 74.8028 33.6098C76.6993 36.4486 77.7114 39.786 77.7111 43.2C77.7056 47.7757 75.8855 52.1625 72.6499 55.398C69.4144 58.6336 65.0277 60.4537 60.4519 60.4592ZM48.8343 27.5456C47.2045 28.7579 45.7721 30.2152 44.5879 31.8656V19.5328H48.8343V27.5456ZM34.8567 29.7232H39.1047V46.944H34.8567V29.7232ZM41.3447 47.1024C41.344 47.1099 41.344 47.1174 41.3447 47.1248V47.1024Z" fill="#515151"/>
    </g>
  </g>
</svg>
